<?xml version="1.0" encoding="UTF-8" standalone="no"?>
<!-- Created with Inkscape (http://www.inkscape.org/) -->

<svg
   xmlns:dc="http://purl.org/dc/elements/1.1/"
   xmlns:cc="http://creativecommons.org/ns#"
   xmlns:rdf="http://www.w3.org/1999/02/22-rdf-syntax-ns#"
   xmlns:svg="http://www.w3.org/2000/svg"
   xmlns="http://www.w3.org/2000/svg"
   xmlns:sodipodi="http://sodipodi.sourceforge.net/DTD/sodipodi-0.dtd"
   xmlns:inkscape="http://www.inkscape.org/namespaces/inkscape"
   width="48px"
   height="48px"
   id="svg3206"
   version="1.1"
   inkscape:version="0.48.5 r10040"
   sodipodi:docname="golf_club_logo.svg">
  <defs
     id="defs3208" />
  <sodipodi:namedview
     id="base"
     pagecolor="#ffffff"
     bordercolor="#666666"
     borderopacity="1.0"
     inkscape:pageopacity="0.0"
     inkscape:pageshadow="2"
     inkscape:zoom="7"
     inkscape:cx="-1.9285714"
     inkscape:cy="24"
     inkscape:current-layer="layer1"
     showgrid="true"
     inkscape:grid-bbox="true"
     inkscape:document-units="px"
     inkscape:window-width="1920"
     inkscape:window-height="1005"
     inkscape:window-x="-9"
     inkscape:window-y="-9"
     inkscape:window-maximized="1" />
  <metadata
     id="metadata3211">
    <rdf:RDF>
      <cc:Work
         rdf:about="">
        <dc:format>image/svg+xml</dc:format>
        <dc:type
           rdf:resource="http://purl.org/dc/dcmitype/StillImage" />
        <dc:title></dc:title>
      </cc:Work>
    </rdf:RDF>
  </metadata>
  <g
     id="layer1"
     inkscape:label="Layer 1"
     inkscape:groupmode="layer">
    <g
       style="display:inline;fill:#aa8800"
       id="g5042"
       transform="matrix(1.0010274,0,0,0.87501694,-81.720715,-786.10835)">
      <g
         id="g5558"
         transform="matrix(0.94392926,0,0,0.94392926,14.850266,31.043852)"
         style="fill:#aa8800;fill-opacity:1">
        <path
           style="fill:#aa8800;fill-opacity:1"
           d="m 118.74544,918.90811 c -0.0476,0.0223 -0.0688,0.10117 -0.1035,0.2419 -0.0447,0.18115 -0.52091,1.73355 -1.05866,3.44768 -1.55123,4.94475 -3.17202,10.12724 -4.25046,13.60196 -0.83761,2.69892 -1.03872,3.26575 -1.26939,3.55578 -0.31427,0.39513 -0.60258,1.24271 -3.91405,11.51763 -2.19712,6.81722 -2.22726,6.8918 -3.11007,7.70902 -0.44417,0.41122 -0.76757,0.54855 -1.47454,0.62318 -0.87342,0.0923 -1.89442,-0.2012 -4.245172,-1.21617 -3.489256,-1.50658 -6.814502,-2.63999 -10.997487,-3.75194 -4.162563,-1.10652 -8.54758,-1.58986 -9.991018,-1.10155 -1.923357,0.65065 -3.446249,2.30483 -4.221425,4.5949 -0.680698,2.011 -0.838874,3.12446 -0.782346,5.43154 0.108604,4.43165 1.346346,8.13356 3.643041,10.89955 0.910453,1.09648 2.200323,1.95799 3.388328,2.26338 1.139092,0.29283 3.321752,0.3038 5.181718,0.0263 5.39793,-0.80516 14.568911,-4.04052 17.804951,-6.27826 1.69253,-1.17039 3.49586,-3.4911 5.29194,-6.8176 0.55071,-1.01994 0.77321,-1.56156 1.3694,-3.29098 2.3869,-6.92393 3.83548,-11.54582 4.65645,-14.86198 0.39932,-1.61299 0.77275,-3.11837 0.83136,-3.34779 0.0586,-0.22941 0.0662,-0.60979 0.0144,-0.84238 -0.10384,-0.46633 -0.2916,0.19277 2.95407,-10.29531 0.71876,-2.32258 1.69658,-5.49951 2.17547,-7.06083 0.47888,-1.56131 0.90467,-2.92562 0.94747,-3.03156 0.0689,-0.17156 -0.0217,-0.2573 -0.8389,-0.78822 l -0.91851,-0.59852 -0.22405,0.7267 c -0.12289,0.39783 -0.41377,1.31784 -0.64693,2.04526 -0.23315,0.72741 -0.52535,1.69278 -0.64875,2.1476 -0.22836,0.84199 -0.46917,1.65787 -1.34046,4.55155 -0.26945,0.8949 -1.07889,3.58692 -1.80061,5.98401 -0.72173,2.39708 -1.33247,4.44785 -1.35443,4.5624 -0.0392,0.20442 -0.2266,0.24603 -0.45923,0.0949 -0.12487,-0.0811 -0.0931,-0.22695 0.54046,-2.28903 0.50226,-1.63462 2.36129,-7.56075 2.95129,-9.41227 0.12105,-0.37991 0.60418,-1.93821 1.07461,-3.4668 0.47044,-1.5286 1.03138,-3.3048 1.24814,-3.94732 l 0.39368,-1.16716 -0.41896,-0.27459 c -0.2051,-0.13323 -0.30971,-0.19741 -0.37382,-0.19018 -0.008,7.4e-4 -0.0172,0.002 -0.024,0.005 z m -5.89953,21.4202 c 0.0181,-0.004 0.0363,-0.006 0.0545,-0.008 0.24214,-0.0217 0.47884,0.15304 0.36379,0.43942 -0.086,0.21399 -0.17823,0.24393 -0.46911,0.15976 -0.33123,-0.0958 -0.34975,-0.1198 -0.2596,-0.32849 0.0645,-0.14938 0.18414,-0.2356 0.31043,-0.26289 z m -31.643654,19.20971 c 0.05704,-0.0138 0.116118,-0.0256 0.173901,-0.0374 2.033964,-0.41507 4.521295,0.35731 6.593229,0.41291 3.76647,0.10106 7.573827,0.63639 11.199938,1.93566 1.298786,0.46537 2.948626,0.65294 3.705426,2.07357 0.6259,1.17489 0.68699,3.03778 0.11273,4.25456 -1.04596,2.21614 -2.17995,1.85796 -5.474018,3.40938 -3.294029,1.55144 -11.764665,5.28658 -16.564567,2.96799 -1.415755,-1.06144 -2.018267,-3.45349 -2.377754,-5.49287 -0.464255,-2.63363 -1.084646,-6.14354 0.392775,-8.0813 0.614745,-0.80628 1.382749,-1.23649 2.23834,-1.44249 z m 10.595263,1.79515 -11.601672,2.55511 a 0.58390736,0.74253024 0 1 0 0.200758,1.4628 l 11.601672,-2.55509 a 0.58390736,0.74253024 0 1 0 -0.200758,-1.46282 z m 4.210049,1.92577 -16.477864,3.59645 a 0.58390736,0.74253024 0 1 0 0.197778,1.46346 l 16.477866,-3.59644 a 0.58390736,0.74253024 0 1 0 -0.197788,-1.46345 z m 3.124682,2.15931 -18.466221,4.02034 a 0.58390736,0.74253024 0 1 0 0.197779,1.46347 l 18.46622,-4.02034 a 0.58390736,0.74253024 0 1 0 -0.197778,-1.46347 z m -2.477096,3.35677 -14.312611,3.13448 a 0.58390736,0.74253024 0 1 0 0.197779,1.46345 l 14.31261,-3.13448 a 0.58390736,0.74253024 0 1 0 -0.197778,-1.46345 z"
           id="path4753"
           inkscape:connector-curvature="0" />
        <flowRoot
           xml:space="preserve"
           id="flowRoot3110"
           style="font-size:36px;font-style:normal;font-variant:normal;font-weight:normal;font-stretch:normal;line-height:125%;letter-spacing:0px;word-spacing:0px;fill:#aa8800;fill-opacity:1;stroke:none;font-family:Segoe UI;-inkscape-font-specification:Segoe UI"
           transform="matrix(0.20633658,0.0391175,-0.05626453,0.25243004,72.450684,907.47014)"
           inkscape:transform-center-x="14.849532"
           inkscape:transform-center-y="-11.37428"><flowRegion
             id="flowRegion3112"><rect
               id="rect3114"
               width="174.96786"
               height="37.538563"
               x="34.357327"
               y="132.03085"
               style="font-size:36px;font-style:normal;font-variant:normal;font-weight:normal;font-stretch:normal;fill:#aa8800;font-family:Segoe UI;-inkscape-font-specification:Segoe UI" /></flowRegion><flowPara
             id="flowPara3116">Golf Clubs</flowPara></flowRoot>      </g>
    </g>
  </g>
</svg>
