<?xml version="1.0" encoding="UTF-8" standalone="no"?>
<!-- Created with Inkscape (http://www.inkscape.org/) -->

<svg
   xmlns:dc="http://purl.org/dc/elements/1.1/"
   xmlns:cc="http://creativecommons.org/ns#"
   xmlns:rdf="http://www.w3.org/1999/02/22-rdf-syntax-ns#"
   xmlns:svg="http://www.w3.org/2000/svg"
   xmlns="http://www.w3.org/2000/svg"
   xmlns:sodipodi="http://sodipodi.sourceforge.net/DTD/sodipodi-0.dtd"
   xmlns:inkscape="http://www.inkscape.org/namespaces/inkscape"
   width="300"
   height="300"
   id="svg2"
   version="1.1"
   inkscape:version="0.48.5 r10040"
   sodipodi:docname="golf_club.svg">
  <defs
     id="defs4">
    <inkscape:perspective
       sodipodi:type="inkscape:persp3d"
       inkscape:vp_x="0 : 526.18109 : 1"
       inkscape:vp_y="0 : 1000 : 0"
       inkscape:vp_z="744.09448 : 526.18109 : 1"
       inkscape:persp3d-origin="372.04724 : 350.78739 : 1"
       id="perspective10" />
    <inkscape:perspective
       id="perspective3542"
       inkscape:persp3d-origin="0.5 : 0.33333333 : 1"
       inkscape:vp_z="1 : 0.5 : 1"
       inkscape:vp_y="0 : 1000 : 0"
       inkscape:vp_x="0 : 0.5 : 1"
       sodipodi:type="inkscape:persp3d" />
    <inkscape:perspective
       id="perspective4335"
       inkscape:persp3d-origin="0.5 : 0.33333333 : 1"
       inkscape:vp_z="1 : 0.5 : 1"
       inkscape:vp_y="0 : 1000 : 0"
       inkscape:vp_x="0 : 0.5 : 1"
       sodipodi:type="inkscape:persp3d" />
    <inkscape:perspective
       id="perspective3630"
       inkscape:persp3d-origin="0.5 : 0.33333333 : 1"
       inkscape:vp_z="1 : 0.5 : 1"
       inkscape:vp_y="0 : 1000 : 0"
       inkscape:vp_x="0 : 0.5 : 1"
       sodipodi:type="inkscape:persp3d" />
    <inkscape:perspective
       id="perspective3898"
       inkscape:persp3d-origin="0.5 : 0.33333333 : 1"
       inkscape:vp_z="1 : 0.5 : 1"
       inkscape:vp_y="0 : 1000 : 0"
       inkscape:vp_x="0 : 0.5 : 1"
       sodipodi:type="inkscape:persp3d" />
    <inkscape:perspective
       id="perspective4038"
       inkscape:persp3d-origin="143.2805 : 78.931 : 1"
       inkscape:vp_z="286.561 : 118.3965 : 1"
       inkscape:vp_y="0 : 1000 : 0"
       inkscape:vp_x="0 : 118.3965 : 1"
       sodipodi:type="inkscape:persp3d" />
    <inkscape:perspective
       id="perspective4164"
       inkscape:persp3d-origin="0.5 : 0.33333333 : 1"
       inkscape:vp_z="1 : 0.5 : 1"
       inkscape:vp_y="0 : 1000 : 0"
       inkscape:vp_x="0 : 0.5 : 1"
       sodipodi:type="inkscape:persp3d" />
    <inkscape:perspective
       id="perspective4639"
       inkscape:persp3d-origin="0.5 : 0.33333333 : 1"
       inkscape:vp_z="1 : 0.5 : 1"
       inkscape:vp_y="0 : 1000 : 0"
       inkscape:vp_x="0 : 0.5 : 1"
       sodipodi:type="inkscape:persp3d" />
    <inkscape:perspective
       sodipodi:type="inkscape:persp3d"
       inkscape:vp_x="0 : 0.5 : 1"
       inkscape:vp_y="0 : 1000 : 0"
       inkscape:vp_z="1 : 0.5 : 1"
       inkscape:persp3d-origin="0.5 : 0.33333333 : 1"
       id="perspective2906" />
    <inkscape:perspective
       sodipodi:type="inkscape:persp3d"
       inkscape:vp_x="0 : 0.5 : 1"
       inkscape:vp_y="0 : 1000 : 0"
       inkscape:vp_z="1 : 0.5 : 1"
       inkscape:persp3d-origin="0.5 : 0.33333333 : 1"
       id="perspective2848" />
    <inkscape:perspective
       sodipodi:type="inkscape:persp3d"
       inkscape:vp_x="0 : 526.18109 : 1"
       inkscape:vp_y="0 : 1000 : 0"
       inkscape:vp_z="744.09448 : 526.18109 : 1"
       inkscape:persp3d-origin="372.04724 : 350.78739 : 1"
       id="perspective10-2" />
    <inkscape:perspective
       id="perspective2390-4"
       inkscape:persp3d-origin="372.04724 : 350.78739 : 1"
       inkscape:vp_z="744.09448 : 526.18109 : 1"
       inkscape:vp_y="0 : 1000 : 0"
       inkscape:vp_x="0 : 526.18109 : 1"
       sodipodi:type="inkscape:persp3d" />
    <inkscape:perspective
       sodipodi:type="inkscape:persp3d"
       inkscape:vp_x="0 : 526.18109 : 1"
       inkscape:vp_y="0 : 1000 : 0"
       inkscape:vp_z="744.09448 : 526.18109 : 1"
       inkscape:persp3d-origin="372.04724 : 350.78739 : 1"
       id="perspective10-4" />
    <inkscape:perspective
       id="perspective2390"
       inkscape:persp3d-origin="372.04724 : 350.78739 : 1"
       inkscape:vp_z="744.09448 : 526.18109 : 1"
       inkscape:vp_y="0 : 1000 : 0"
       inkscape:vp_x="0 : 526.18109 : 1"
       sodipodi:type="inkscape:persp3d" />
    <inkscape:perspective
       id="perspective10-27"
       inkscape:persp3d-origin="372.04724 : 350.78739 : 1"
       inkscape:vp_z="744.09448 : 526.18109 : 1"
       inkscape:vp_y="0 : 1000 : 0"
       inkscape:vp_x="0 : 526.18109 : 1"
       sodipodi:type="inkscape:persp3d" />
    <inkscape:perspective
       id="perspective4915"
       inkscape:persp3d-origin="0.5 : 0.33333333 : 1"
       inkscape:vp_z="1 : 0.5 : 1"
       inkscape:vp_y="0 : 1000 : 0"
       inkscape:vp_x="0 : 0.5 : 1"
       sodipodi:type="inkscape:persp3d" />
  </defs>
  <sodipodi:namedview
     id="base"
     pagecolor="#ffffff"
     bordercolor="#666666"
     borderopacity="1.0"
     inkscape:pageopacity="0.0"
     inkscape:pageshadow="2"
     inkscape:zoom="1.5717172"
     inkscape:cx="163.30077"
     inkscape:cy="172.19951"
     inkscape:document-units="px"
     inkscape:current-layer="g5558"
     showgrid="false"
     inkscape:window-width="1920"
     inkscape:window-height="1005"
     inkscape:window-x="-9"
     inkscape:window-y="-9"
     inkscape:window-maximized="1"
     showguides="true"
     inkscape:guide-bbox="true" />
  <metadata
     id="metadata7">
    <rdf:RDF>
      <cc:Work
         rdf:about="">
        <dc:format>image/svg+xml</dc:format>
        <dc:type
           rdf:resource="http://purl.org/dc/dcmitype/StillImage" />
        <dc:title />
      </cc:Work>
    </rdf:RDF>
  </metadata>
  <g
     inkscape:label="Layer 1"
     inkscape:groupmode="layer"
     id="layer1"
     transform="translate(0,-752.36218)"
     style="display:inline">
    <text
       xml:space="preserve"
       style="font-size:20px;font-style:normal;font-weight:normal;fill:#000000;fill-opacity:1;stroke:none;font-family:Plantagenet Cherokee;-inkscape-font-specification:Plantagenet Cherokee"
       x="1016.2135"
       y="733.42126"
       id="text3042"
       transform="translate(0,62.362183)"><tspan
         sodipodi:role="line"
         id="tspan3044"
         x="1016.2135"
         y="733.42126" /></text>
    <g
       id="g5042"
       transform="matrix(0.92192684,0,0,0.92192684,39.40689,45.117636)">
      <g
         id="g5558"
         transform="matrix(0.94392926,0,0,0.94392926,14.850266,31.043852)"
         style="fill:#d5d5d5;fill-opacity:1">
        <path
           style="fill:#2d5016;fill-opacity:1"
           d="m 258.53966,793.91125 c -0.32511,0.1199 -0.46984,0.5433 -0.70687,1.29909 -0.30524,0.97283 -3.55738,9.30979 -7.22985,18.51532 -10.59377,26.55515 -21.66261,54.38705 -29.02755,73.04758 -5.72026,14.49417 -7.09366,17.53828 -8.66903,19.09585 -2.14621,2.12195 -4.11512,6.67379 -26.73008,61.85393 -15.00474,36.61098 -15.21056,37.01148 -21.23949,41.40028 -3.03338,2.2084 -5.24194,2.9459 -10.07005,3.3467 -5.96486,0.4954 -12.93754,-1.0805 -28.99145,-6.5313 -23.82908,-8.09086 -46.538084,-14.17771 -75.104832,-20.14928 -28.427272,-5.94241 -58.3737482,-8.53813 -68.231379,-5.91575 -13.135124,3.49424 -23.535368,12.3778 -28.829259,24.67633 -4.648672,10.7998 -5.728895,16.7795 -5.342854,29.1694 0.741692,23.7996 9.194568,43.6802 24.87932,58.5346 6.217735,5.8885 15.026603,10.5151 23.139815,12.1552 7.7791686,1.5726 22.685149,1.6315 35.387363,0.1415 36.863928,-4.324 99.495056,-21.6991 121.594866,-33.7166 11.55875,-6.2854 23.87414,-18.7485 36.14009,-36.613 3.76092,-5.4775 5.28046,-8.3862 9.35199,-17.6738 16.3008,-37.18406 26.19354,-62.00533 31.80017,-79.81433 2.72708,-8.66236 5.27733,-16.74683 5.6776,-17.97888 0.40025,-1.23202 0.45183,-3.27477 0.0981,-4.5239 -0.70914,-2.50436 -1.99137,1.03528 20.17416,-55.28959 4.9086,-12.47315 11.58644,-29.53444 14.85686,-37.91927 3.27041,-8.38485 6.17828,-15.71168 6.47054,-16.28065 0.4707,-0.92134 -0.14789,-1.38176 -5.72904,-4.23301 l -6.27274,-3.21425 -1.53012,3.90264 c -0.83926,2.13647 -2.82578,7.07725 -4.41809,10.98377 -1.59226,3.90648 -3.58773,9.09087 -4.43045,11.53344 -1.55955,4.52181 -3.2041,8.90338 -9.15437,24.44351 -1.84018,4.80594 -7.36805,19.26309 -12.29685,32.13632 -4.92892,12.87324 -9.09984,23.8866 -9.24977,24.50179 -0.26755,1.09781 -1.54752,1.32125 -3.13624,0.50961 -0.85277,-0.43562 -0.63599,-1.21882 3.69093,-12.29296 3.43011,-8.7785 16.12589,-40.60404 20.15516,-50.54737 0.82669,-2.04025 4.12615,-10.40892 7.33882,-18.61801 3.2128,-8.20913 7.04357,-17.74797 8.5239,-21.19856 l 2.68854,-6.26806 -2.86119,-1.47467 c -1.40071,-0.71551 -2.11511,-1.06017 -2.55292,-1.02134 -0.0545,0.004 -0.11733,0.0107 -0.16371,0.0278 z m -40.2895,115.03441 c 0.12331,-0.0214 0.24793,-0.0331 0.37206,-0.0419 1.65365,-0.11648 3.27016,0.82186 2.4844,2.35985 -0.58713,1.14921 -1.21717,1.31001 -3.20369,0.85799 -2.26205,-0.5147 -2.38851,-0.6434 -1.77287,-1.76412 0.44071,-0.80226 1.25757,-1.26528 2.12003,-1.41181 z M 2.1470328,1012.1089 c 0.3895676,-0.074 0.7930055,-0.1374 1.1876168,-0.2009 13.8904934,-2.2291 30.8771584,1.9189 45.0269574,2.2175 25.72225,0.5427 51.723723,3.4176 76.487423,10.3952 8.8698,2.4992 20.13695,3.5065 25.30537,11.1358 4.27441,6.3096 4.69161,16.314 0.76988,22.8486 -7.14318,11.9015 -14.88751,9.9779 -37.38358,18.3096 -22.495823,8.3318 -80.344101,28.3909 -113.12393853,15.9392 -9.66857527,-5.7003 -13.78329147,-18.5465 -16.23832747,-29.4987 -3.170526,-14.1436 -7.40734,-32.9931 2.682369,-43.3996 4.1982592,-4.33 9.4431657,-6.6404 15.2862298,-7.7467 z m 72.3579362,9.6406 -79.2309777,13.7219 a 3.9876622,3.9876622 0 1 0 1.3710306,7.8558 l 79.2309791,-13.7218 a 3.9876622,3.9876622 0 1 0 -1.371032,-7.8559 z m 28.751571,10.3421 -112.5318198,19.3143 a 3.9876622,3.9876622 0 1 0 1.350684,7.8593 L 104.60723,1039.951 a 3.9876622,3.9876622 0 1 0 -1.35075,-7.8593 z m 21.3393,11.5963 -126.1108445,21.5907 a 3.9876622,3.9876622 0 1 0 1.35068457,7.8594 L 125.94652,1051.5473 a 3.9876622,3.9876622 0 1 0 -1.35068,-7.8594 z m -16.91676,18.0271 -97.7447142,16.8333 a 3.9876622,3.9876622 0 1 0 1.3506842,7.8593 l 97.74471,-16.8333 a 3.9876622,3.9876622 0 1 0 -1.35068,-7.8593 z"
           id="path4753" />
        <flowRoot
           xml:space="preserve"
           id="flowRoot3110"
           style="font-size:36px;font-style:normal;font-variant:normal;font-weight:normal;font-stretch:normal;line-height:125%;letter-spacing:0px;word-spacing:0px;fill:#000000;fill-opacity:1;stroke:none;font-family:Segoe UI;-inkscape-font-specification:Segoe UI"
           transform="matrix(1.143456,0.2350519,-0.31180129,1.5168187,-12.460793,712.53324)"><flowRegion
             id="flowRegion3112"><rect
               id="rect3114"
               width="174.96786"
               height="37.538563"
               x="34.357327"
               y="132.03085"
               style="font-size:36px;font-style:normal;font-variant:normal;font-weight:normal;font-stretch:normal;font-family:Segoe UI;-inkscape-font-specification:Segoe UI" /></flowRegion><flowPara
             id="flowPara3116">Golf Clubs</flowPara></flowRoot>      </g>
    </g>
    <text
       xml:space="preserve"
       style="font-size:20px;font-style:normal;font-weight:normal;fill:#000000;fill-opacity:1;stroke:none;font-family:Plantagenet Cherokee;-inkscape-font-specification:Plantagenet Cherokee"
       x="552.85712"
       y="748.57141"
       id="text4266"
       transform="translate(0,62.362183)"><tspan
         sodipodi:role="line"
         id="tspan4268"
         x="552.85712"
         y="748.57141" /></text>
  </g>
</svg>
